G75*
%MOIN*%
%OFA0B0*%
%FSLAX24Y24*%
%IPPOS*%
%LPD*%
%AMOC8*
5,1,8,0,0,1.08239X$1,22.5*
%
%ADD10R,0.0580X0.0300*%
%ADD11R,0.0300X0.0580*%
%ADD12R,0.2245X0.0867*%
%ADD13R,0.0592X0.0671*%
%ADD14R,0.0671X0.0592*%
%ADD15R,0.1025X0.1025*%
%ADD16R,0.0552X0.0710*%
%ADD17R,0.1025X0.0552*%
%ADD18R,0.0474X0.0178*%
%ADD19R,0.0907X0.0907*%
%ADD20C,0.1261*%
%ADD21R,0.0946X0.0316*%
%ADD22R,0.0297X0.0552*%
%ADD23R,0.0434X0.0434*%
%ADD24R,0.0631X0.0631*%
%ADD25R,0.0552X0.0297*%
%ADD26R,0.1025X0.1182*%
%ADD27R,0.0474X0.0513*%
%ADD28R,0.0789X0.0710*%
%ADD29R,0.0710X0.0789*%
%ADD30R,0.0513X0.0474*%
%ADD31R,0.0474X0.0631*%
%ADD32C,0.0640*%
%ADD33OC8,0.0640*%
%ADD34C,0.1340*%
%ADD35R,0.1237X0.1489*%
%ADD36R,0.0433X0.0197*%
%ADD37C,0.0600*%
%ADD38R,0.1182X0.1025*%
%ADD39R,0.1182X0.1576*%
%ADD40R,0.1576X0.1182*%
%ADD41R,0.1615X0.0867*%
%ADD42R,0.0966X0.1852*%
%ADD43OC8,0.0680*%
%ADD44C,0.1380*%
%ADD45R,0.0476X0.0476*%
D10*
X032084Y009023D03*
X032084Y009337D03*
X032084Y009652D03*
X032084Y009967D03*
X032084Y010282D03*
X032084Y010597D03*
X032084Y010912D03*
X032084Y011227D03*
X035464Y011227D03*
X035464Y010912D03*
X035464Y010597D03*
X035464Y010282D03*
X035464Y009967D03*
X035464Y009652D03*
X035464Y009337D03*
X035464Y009023D03*
D11*
X034877Y008435D03*
X034562Y008435D03*
X034247Y008435D03*
X033932Y008435D03*
X033617Y008435D03*
X033302Y008435D03*
X032987Y008435D03*
X032672Y008435D03*
X032672Y011815D03*
X032987Y011815D03*
X033302Y011815D03*
X033617Y011815D03*
X033932Y011815D03*
X034247Y011815D03*
X034562Y011815D03*
X034877Y011815D03*
D12*
X036440Y014928D03*
X032700Y014928D03*
D13*
X032708Y016412D03*
X031960Y016412D03*
X036420Y016456D03*
X037168Y016456D03*
X036691Y012137D03*
X035943Y012137D03*
X028830Y008834D03*
X028082Y008834D03*
D14*
X030845Y009152D03*
X030845Y008404D03*
X028432Y011924D03*
X028432Y012672D03*
X025074Y014117D03*
X025074Y014865D03*
X021235Y013125D03*
X021235Y012377D03*
X017629Y009373D03*
X017629Y008625D03*
D15*
X022467Y011771D03*
X022467Y013739D03*
X030026Y013554D03*
X030026Y011586D03*
D16*
X029971Y014530D03*
X028790Y014530D03*
D17*
X026912Y013113D03*
X026912Y012113D03*
X023912Y012113D03*
X023912Y013113D03*
D18*
X027616Y010274D03*
X027616Y010078D03*
X027616Y009881D03*
X027616Y009684D03*
X027616Y009487D03*
X029280Y009487D03*
X029280Y009684D03*
X029280Y009881D03*
X029280Y010078D03*
X029280Y010274D03*
D19*
X022078Y004263D03*
X020424Y004263D03*
X020424Y002097D03*
X022078Y002097D03*
X030164Y002054D03*
X030164Y004219D03*
X035251Y004219D03*
X035251Y002054D03*
X009294Y016991D03*
X009294Y019156D03*
D20*
X007444Y018975D03*
X011145Y018975D03*
X018574Y004082D03*
X023928Y004082D03*
X028314Y004038D03*
X032015Y004038D03*
X033400Y004038D03*
X037101Y004038D03*
D21*
X015933Y008457D03*
X015933Y009457D03*
X015933Y010457D03*
X015933Y011457D03*
X012433Y011457D03*
X012433Y010457D03*
X012433Y009457D03*
X012433Y008457D03*
D22*
X015834Y007223D03*
X016582Y007223D03*
X016582Y006200D03*
X016208Y006200D03*
X015834Y006200D03*
D23*
X016546Y005219D03*
X016542Y004026D03*
X016542Y002834D03*
X012093Y002841D03*
X012093Y004026D03*
X012097Y005219D03*
D24*
X012030Y006499D03*
X013526Y006499D03*
X013550Y007377D03*
X012054Y007377D03*
D25*
X009298Y002373D03*
X009298Y001999D03*
X009298Y001625D03*
X008274Y001625D03*
X008274Y002373D03*
D26*
X010471Y001625D03*
X012952Y001625D03*
D27*
X011093Y002774D03*
X011093Y003444D03*
X010452Y007761D03*
X009783Y007761D03*
X015082Y012743D03*
X015082Y013412D03*
X021979Y015538D03*
X021979Y016208D03*
X023436Y015400D03*
X024105Y015400D03*
X025357Y016353D03*
X026188Y016353D03*
X026188Y017023D03*
X025357Y017023D03*
X024129Y014086D03*
X023460Y014086D03*
X030400Y010267D03*
X031070Y010267D03*
X040645Y006586D03*
X041314Y006586D03*
D28*
X017625Y006570D03*
X017625Y007672D03*
X007180Y002058D03*
X007180Y000956D03*
D29*
X008263Y000995D03*
X009365Y000995D03*
X009385Y011870D03*
X010487Y011870D03*
D30*
X010960Y008963D03*
X011629Y008963D03*
X009418Y005065D03*
X009418Y004396D03*
X016975Y012794D03*
X017645Y012794D03*
X017834Y013601D03*
X017164Y013601D03*
X019377Y013448D03*
X020046Y013448D03*
X026184Y015105D03*
X026184Y015774D03*
D31*
X010776Y005793D03*
X010028Y005793D03*
X010402Y004927D03*
D32*
X040400Y009086D03*
D33*
X039400Y009086D03*
X039400Y010086D03*
X040400Y010086D03*
X040400Y011086D03*
X039400Y011086D03*
D34*
X005145Y001952D03*
X026011Y001952D03*
X039397Y001952D03*
X039397Y018290D03*
X028767Y018290D03*
X005145Y018290D03*
D35*
X019456Y014932D03*
D36*
X018363Y015060D03*
X018363Y015316D03*
X018363Y015572D03*
X018363Y015828D03*
X018363Y014804D03*
X018363Y014548D03*
X018363Y014292D03*
X018363Y014036D03*
X020548Y014036D03*
X020548Y014292D03*
X020548Y014548D03*
X020548Y014804D03*
X020548Y015060D03*
X020548Y015316D03*
X020548Y015572D03*
X020548Y015828D03*
D37*
X020483Y016798D02*
X019963Y016798D01*
X017483Y016798D02*
X016963Y016798D01*
D38*
X015771Y016700D03*
X013841Y015030D03*
X015771Y014219D03*
X013841Y012550D03*
D39*
X012507Y013601D03*
X009593Y013601D03*
X015845Y018487D03*
X018759Y018487D03*
D40*
X013719Y019070D03*
X013719Y016156D03*
D41*
X011570Y015373D03*
X011570Y017046D03*
D42*
X020013Y018550D03*
X022677Y018550D03*
D43*
X007680Y012167D03*
X006680Y011627D03*
X007680Y011087D03*
X006680Y010547D03*
X007680Y010007D03*
X006680Y009467D03*
X007680Y008927D03*
X006680Y008387D03*
X007680Y007847D03*
D44*
X007180Y005077D03*
X007180Y014937D03*
D45*
X011263Y011184D03*
X010318Y010247D03*
X010948Y009448D03*
X010314Y009271D03*
X010160Y008353D03*
X009231Y007097D03*
X016790Y009483D03*
X018271Y010475D03*
X019412Y008597D03*
X022700Y009176D03*
X026389Y009416D03*
X027523Y008286D03*
X029633Y008727D03*
X029963Y009243D03*
X031515Y009341D03*
X034078Y010326D03*
X034105Y011101D03*
X035026Y012365D03*
X037239Y013141D03*
X032389Y012554D03*
X030806Y011519D03*
X030365Y012404D03*
X036613Y010778D03*
X035778Y006692D03*
X021298Y013790D03*
X021168Y014554D03*
X021145Y015578D03*
X021381Y016192D03*
X024865Y017003D03*
X029849Y015774D03*
X031420Y015774D03*
X017326Y014432D03*
X017184Y015243D03*
X012062Y003424D03*
X008200Y002007D03*
X007176Y001483D03*
M02*
