%
M48
M72
T01C0.0236
T02C0.0320
T03C0.0360
T04C0.0400
T05C0.0551
T06C0.1181
T07C0.1260
T08C0.1300
%
T01
X7176Y1483
X8200Y2007
X12062Y3424
X9231Y7097
X10160Y8353
X10314Y9271
X10948Y9448
X10318Y10247
X11263Y11184
X16790Y9483
X18271Y10475
X19412Y8597
X22700Y9176
X26389Y9416
X27523Y8286
X29633Y8727
X29963Y9243
X31515Y9341
X34078Y10326
X34105Y11101
X35026Y12365
X37239Y13141
X32389Y12554
X30806Y11519
X30365Y12404
X36613Y10778
X35778Y6692
X21298Y13790
X21168Y14554
X21145Y15578
X21381Y16192
X24865Y17003
X29849Y15774
X31420Y15774
X17326Y14432
X17184Y15243
T02
X17223Y16798
X20223Y16798
T03
X39400Y11086
X40400Y11086
X40400Y10086
X39400Y10086
X39400Y9086
X40400Y9086
T04
X7680Y8927
X6680Y9467
X7680Y10007
X6680Y10547
X7680Y11087
X6680Y11627
X7680Y12167
X6680Y8387
X7680Y7847
T05
X20424Y4263
X22078Y4263
X22078Y2097
X20424Y2097
X30164Y2054
X30164Y4219
X35251Y4219
X35251Y2054
X9294Y16991
X9294Y19156
T06
X7444Y18975
X11145Y18975
X18574Y4082
X23928Y4082
X28314Y4038
X32015Y4038
X33400Y4038
X37101Y4038
T07
X5145Y1952
X26011Y1952
X39397Y1952
X39397Y18290
X28767Y18290
X5145Y18290
T08
X7180Y14937
X7180Y5077
M30
